<svg xmlns="http://www.w3.org/2000/svg" width="456.5" height="457.7" viewBox="0 0 456.5 457.7">
  <g id="katman_2" data-name="katman 2">
    <g id="katman_1-2" data-name="katman 1">
      <g>
        <path d="M254.6,456.5C114,471.1-16.8,348.9,1.8,203.8,15.6,39.8,214.2-57,352,36.6,531.7,153.1,466.9,427.2,254.6,456.5ZM389.1,228.6c2.6-8.3,11.8-6.8,13-13.6s-3.8-11.6-10.6-11.2c-18.7-.6-36.9-6.1-55.5-9-6.2.3-10.8-6-17.8-4.7-4.1-5.6-12.7-6.8-18.4-7.7-5-6.6-9.5-13.7-18.5-10.1-7.4,4.2-11.7-4-19.1-2.1s-11.4,4.8-19,5.8c11.8,7.9,25.4,13.7,28.4,30-8.6-3.8-19.6-1.4-14,9.4,5.7,22.6,25.6,35.2,39.2,52.4,11.5,9.7,27.7,11.2,38.1,21.3,11.9,10.5-15.2,9.4-21.4,10.4-25.7,3.3-41-18.7-56.8-34.6-20.7-9.8-43.2-23.9-60.6-36.6-8.4-15-16.3-43.1-17.6-6-9.1-4.4,4.6-25.3-8.9-23.8.7,6.1-3.7,11.8-.8,18s-3.3,9.8-5.1,15.4c-1.4-32.4-7.5-16.7-12.7,4.9-6,9.8.4-8.3-2.5-12.4-8.1,8.6-4.6,20.6-14,27.6-.8,4-8.5,20-12.6,19.9,2.8-7.4,23.6-58.5,5-42.6,1.6,14.5-6.2,26.5-14,37.7-1.2-11.3,8.3-36-2.9-38.6,4.1,27.3-13.4,11.8-10.1,33.2,2.3,5.3,4.9,15.3-3.6,7.8-2,11.6,6,38.6,15.4,18.9,2.5-4.8,9.9-.2,11,3.6,5.3-.1,13.7,1.9,17.6-2.3,3.8-9,14.5-4.1,20.1-10.6-3-4.3-1.8-8.2,1.4-12.1-12.9-7-2.6-14.1,5.7-19.2,9.4-12.7,43.6,5,18.8,4.2-7-3.7-10.1,5.2-16.5,3.8,1,16,8.5-2.5,25.3,1.5,6.2-2.2,14,9.4,4.6,8.5-4.8-1.5-10.1-2.8-14.5,2.1s-11,2.3-10.1,9c-6.3-.9-4.9,6.2-1,8.5-6.4,15-23.5,16.4-37.3,15.9-8.1-2.4-12.8,15-4.8,12.6,3.7-1.4,8.6,3.3,12.4-.2s11.5.6,11.4-6.2c-.2-3.1,3.6-2.8,5.5-3.5,2.1-5,6.4-4,10.1-4.2,3.1-3.3,7.7-6.1,10.1-9.4-1.1-16,30.9-4.6,38,2.9,6.1,13.1-25.2-11.5-28.2,8.2,36.4-13.1,33.8,29.7,27.5,18.2-3.6-10.8-17.7-14.1-26.9-8.1-6.2,5.9-7.8,2.7-15.1-.2,1.4,10.8-15.7,8.5-22.3,13.4-10.1,8.3-18.9,17.8-33.4,16.2s-31.1,5-46.1,5.9c-21.6-1-19,8.6-4.5,19.2,24.9,36.5,19.4,2,28.8,14.7,4.2-1.5,4.8-8.5,10.7-7.7.5,4.5-7.1,5.4-3.8,10.5,4.4-.2,8.4-4.2,12,1.2,4,.2,7.5,1.3,10.4,4.3,6,2,4.4-1.2,1.9-4.4,1.6-8.5-4.1-5.4-8.1-3.1-.5-2.4-.1-4.3,1.9-5.4,2.8-4.3-4-6.1,6.2-6.6,2.5-6.2,3.3-7.3,6.2-1.2,1-3.7,3.1-5.1,6.9-4.7s6,.1,9.6.1c-2.2,2.6-5.1,4.2-2.7,7.9,10-5.8,5.8,4.4,13.6,6,4.9-10.8,13.5-4.6,21.6-3.3,3.9,3.9,5.8,11.6,14,10-2-9.1-8.5-26.3,2.9-9,4.5,7.3,6.5-6.4,10.9-8.6,5.8-4.1-.4,6.9,4,9.2,1-2,3.2-2.8,3.9-5.4s3-3.2,5.5-1.8c-3,3.8-7.7,13.9-1.5,10.1-.8,8.6,4.1,4.2,8.9,4.9s6.1-.4,8.4-2.7c2.2,2.9,6.2,2,10.7,3.9,8.1-1.4,7.7-17.1,13.8-19.7,2,1.1,2.5,4.8,4.1,1.2,4.1-4.3,5,1.8,5,5.3,2.4-2.8,4.8-1.9,7.4-1.6-5.8,6.5,23.2,15,2.8,19.5,12.9,19.4,22-1.4,9.3,4.4,9.5-13.7-5.6-10.2,5.9-20.4.4-.3.8-.8,1.2-.8,3.7.1.7-3.5,2.5-4.4,5.8-1.1,10.2,1.8,15.2,5.4-3.4,2.5-12.7,2.8-7.2,6.9,4.3-2.9,13.5-3,15.4,2.7-2.8.9-13.3-2.2-9.4,3.3,22.6-2.3-5.9,7.5,9.3,13.6,3.4-2.6,2.7-9.4,7.5-7.6,1.1,2.3,0,6.4,4.6,5.9,1.9-5.1.5-16.7,7.3-9.4,4.3-3.9,7.1.8,9.7-3.2,1.7-1.5,3.3-1.4,5.3.1-2,3-7.1,3.2-6.2,9,27.1-20.5,47.5-47.8,62.6-78,23.9-52.3,26-114,4.2-167.7C361.3-15.4,117.4-27,41.6,133,30,150.6,26,172.8,20.6,192.8c-4.6,11.3,10.9,14.3,17.9,20.4.7-5.9-3.5-23.1,6-19.2,21.3,19.9,13.4,14.3,21.7-8.2,5.4,16,12.4,20.8,12.5,1.3,9.3,14.3,12.2,8.5,4.2-4.2,8.6-2.4,7.2,7.6,14.9-1.1,2.8-6.9-6.3-15-1.1-20,4.7-2.4,7.6,5,11,7.3,6.1-4.8-5.3-12.5-3.7-19.3,5.8-2.5,8.6,6.9,15.2,3.4-2.5-4.1-8.1-6.9-5-11.9,25.4,5.1-6.6-8.9-.8-19.1,9.3-2.9,12.7,5.7,21,2-18.9-54,6.7-5.1,25.9-22.4-4.3-5.6-9.7-11.1-16.7-14.4,3.8-15.2,22.1,3.4,32,2.3.6-5-4.4-5.8-3.2-10.6.5-2.1-.7-4-2.2-4.2-12.3-8.8-.1-10.4,7.1-3.7,13.8,10.9,22.4-7.8,36.6-5.8,6.7,1.9,10.4-5.9,16.6-5.7,9.6-1.1,16-5.4,25.1-7.5,5.9,6.8,14.6,12.7,24.5,11.6,2.7,4.7,1.1,15.3,7.9,15.4a10.7,10.7,0,0,1,10.6,5.4c8.9,13.6,24.2,19.7,36.5,29.5,12.1,8.2,24.6,15.7,35.5,25.9,11.9,6.6,25.9,8.6,35.2,19.7,14.1,16.6,28.7,44.6,1.8,56.5-1.2,0-3.5,1.2-3.5,1.9C402.8,225.8,395.6,227.1,389.1,228.6Zm-90.4-86.4c.7,7.5,16.3,26.5,24,20.6,21.2-10.2,7.1-27.5-5.1-38.6-6.1-3.3-4.9-17.5-14.8-11.5C297.5,120.5,313.7,138.3,298.7,142.2ZM266,138.4c22-1.9,21.5-35.6,10.9-50.3-11.5,1.5-16.2,11.8-6.3,18.9,10.9,11.2-23.7,19.7-4.6,31.4ZM78.2,332.4c-.1-4.3-4.4-6.2-3.1-10.7,1.7-9.2-11-5.7-14.4-12.4C44.3,293.1,56.1,348,78.2,332.4Zm7.5-66.9c1.5-8.9-22.3-28.2-10.5-8.9,14.1,12.3-9.8-1.6,2.3,11.1,5.7,3.1,5,7.1,12,10.6-2-4.6,2.7-19.2-3.8-12.8ZM49.2,333.9c.4-10-9.3-19.2-7.1-29,1.4-2.3-.3-2.6-1.1-3.3-4.5-2.3-2.9,2.9-6,2.8a2.7,2.7,0,0,0-1,1.7C35.7,315,41,328.6,49.2,333.9Zm310-165.3c-.9-11.1-25.8-11.6-23.7-.1,2.9,5.4,13.2-2.3,18,1.3C356.1,171.3,357.6,170.3,359.2,168.6Zm-220.1,228c8.6,4.6,9.5-5.8,17.9,3.7,3.4-3,5.6-.2,8.3,1.8,3.6-5-3.1-5.8-2.5-9.2-12,6-1.4-2.3-6.3-3.3-8.9,4.3-2-2-6.2-4.4-5.6.8-2.7,5-4.7,7.9C141,390.1,138,390.7,139.1,396.6Zm-49-96.7c-6.9-2.7-14-17.3-12-3C78.9,307.8,95.1,319.5,90.1,299.9Zm7.1,19.6c11.8-5.7-4.1-20.7-.7-7.3C97.3,314.6,93.3,316.9,97.2,319.5Z"/>
        <path d="M310.7,270.2c9.5-4.8-1.9-1.7,5.2-14.3,4.3.2,1.7-4.3,4.1-5.8,6.9-9.4,7.9-3.6,3,4-4.8,11.3-8,12.7,4.7,6.5C326.7,267.3,315.7,280.8,310.7,270.2Z"/>
        <path d="M340.9,289.6c-2.8-5.9-1.9-9.2-9-8.1,4.4-12.6,15.8-25.7,7.8-4.6C352.7,262.7,347.1,281.8,340.9,289.6Z"/>
        <path d="M370.1,205.5c.7,8.9.1-.2,7.4,1.2-5.1,7.4-6.7,17-16.3,16.5.6-1.9,7.3-8.1,2.3-5.9C362.9,216.2,363.1,204.3,370.1,205.5Z"/>
        <path d="M322.8,276.4c10.3-23.4,23-22,5.9.1C327.2,278.3,324.3,278.7,322.8,276.4Z"/>
        <path d="M332.7,218.9c4.2-6.7,7.6-14.1,14.9-18.4C354.6,208.1,339.5,216.7,332.7,218.9Z"/>
        <path d="M401.9,211c-6.4,7.3-12.3,6.7-20,13.6C387.9,208.7,387.6,209,401.9,211Z"/>
        <path d="M323.8,215.7c4.2-5.7,7.9-10.9,11.8-15.8C347.7,199.4,331,215.7,323.8,215.7Z"/>
        <path d="M371.5,222.9c6.1-3.6,5.2-10.9,8.6-15.9C394.5,205.5,376.9,225.9,371.5,222.9Z"/>
        <path d="M316.4,212.4c5.3-5.5,6.6-12.6,12.1-17.5C334.8,200.1,321.8,213.4,316.4,212.4Z"/>
        <path d="M298.9,263.7c-.2-9.2,2.1-13,9.7-17.2C308.8,254.5,303.7,258.3,298.9,263.7Z"/>
        <path d="M287.3,228.3c4.6,3.1-7,20.5-9.8,12.2C276.7,234.4,285.6,233.4,287.3,228.3Z"/>
        <path d="M322.7,193.6c1.5,6-5.9,10.8-10.5,14.3C313.9,203.7,316.8,190.5,322.7,193.6Z"/>
        <path d="M311.8,252c1.2,7-.4,17.4-8.1,15.7C304.5,261.6,309.4,257.8,311.8,252Z"/>
        <path d="M346.1,215.6l9.3-13.4C363.2,208.2,349.9,215.4,346.1,215.6Z"/>
        <path d="M292.9,256.1c-3.6-6.7-1.1-9.2,6.9-14.5C299.1,248.2,296.9,251,292.9,256.1Z"/>
      </g>
    </g>
  </g>
</svg>
